<?xml version="1.0" encoding="UTF-8"?>
<svg version="1.1" xmlns="http://www.w3.org/2000/svg" width="191" height="129">
<path d="M0 0 C4.78002716 3.29065491 8.26853912 6.33340076 10 12 C10.515625 12.515625 11.03125 13.03125 11.5625 13.5625 C13.89216836 15.89216836 13.97574991 18.35979749 14.09765625 21.578125 C14.06510417 24.05208333 14.03255208 26.52604167 14 29 C10.37 29 6.74 29 3 29 C3.66 27.02 4.32 25.04 5 23 C2.36 23 -0.28 23 -3 23 C-3.66 24.98 -4.32 26.96 -5 29 C-8.79152334 29.0867982 -12.58279296 29.14032207 -16.375 29.1875 C-17.45523438 29.21263672 -18.53546875 29.23777344 -19.6484375 29.26367188 C-21.1953125 29.27817383 -21.1953125 29.27817383 -22.7734375 29.29296875 C-23.72653809 29.3086792 -24.67963867 29.32438965 -25.66162109 29.34057617 C-26.81911865 29.17199097 -26.81911865 29.17199097 -28 29 C-30 26 -30 26 -30 22 C-32.97 22 -35.94 22 -39 22 C-38.34 23.98 -37.68 25.96 -37 28 C-40.63 28 -44.26 28 -48 28 C-48 26.68 -48 25.36 -48 24 C-47.34 23.67 -46.68 23.34 -46 23 C-46.33 22.67 -46.66 22.34 -47 22 C-46.87617381 15.06573358 -44.61073706 10.2046259 -40 5 C-36.77286539 3.02961644 -33.73278749 2.50901648 -30 2 C-30.99 1.34 -31.98 0.68 -33 0 C-22.193502 -5.64885123 -10.93796598 -5.72861312 0 0 Z M-17 9 C-18.32 11.64 -19.64 14.28 -21 17 C-19.02 19.97 -19.02 19.97 -17 23 C-14.81088845 20.86965747 -14.81088845 20.86965747 -13 18 C-13.09180577 13.40971134 -13.67927527 12.32072473 -17 9 Z M-30 13 C-30 15.97 -30 18.94 -30 22 C-27.69 22.66 -25.38 23.32 -23 24 C-22.67 21.69 -22.34 19.38 -22 17 C-25.66980204 14.08828211 -25.66980204 14.08828211 -30 13 Z M-5 13 C-8.15269289 14.43319686 -8.15269289 14.43319686 -11 17 C-11.55411674 19.84663895 -11.29302268 22.06977319 -11 25 C-7.45481116 23.60240095 -7.45481116 23.60240095 -4 22 C-3.53476937 20.10466658 -3.53476937 20.10466658 -3.375 17.9375 C-3.25125 16.638125 -3.1275 15.33875 -3 14 C-3.66 13.67 -4.32 13.34 -5 13 Z " fill="#B48F53" transform="translate(105,23)"/>
<path d="M0 0 C2.31 0 4.62 0 7 0 C7.99 2.31 8.98 4.62 10 7 C10.99 4.69 11.98 2.38 13 0 C15.64 0 18.28 0 21 0 C21 1.32 21 2.64 21 4 C20.34 4 19.68 4 19 4 C19 6.97 19 9.94 19 13 C19.66 13 20.32 13 21 13 C21 13.99 21 14.98 21 16 C14.07 16 7.14 16 0 16 C0 15.01 0 14.02 0 13 C0.66 13 1.32 13 2 13 C2 10.03 2 7.06 2 4 C1.34 4 0.68 4 0 4 C0 2.68 0 1.36 0 0 Z M14 9 C13.67 10.32 13.34 11.64 13 13 C13.66 13 14.32 13 15 13 C14.67 11.68 14.34 10.36 14 9 Z M6 11 C7 13 7 13 7 13 Z " fill="#FEFEFE" transform="translate(107,58)"/>
<path d="M0 0 C2 2 2 2 2.1953125 3.9453125 C2.13020833 5.96354167 2.06510417 7.98177083 2 10 C2.78375 9.505 3.5675 9.01 4.375 8.5 C7 7 7 7 9 7 C9 5.35 9 3.7 9 2 C9.33 2 9.66 2 10 2 C10 3.65 10 5.3 10 7 C12.97 7 15.94 7 19 7 C18.67 7.66 18.34 8.32 18 9 C15.36 8.67 12.72 8.34 10 8 C9.34 9.98 8.68 11.96 8 14 C4.20847666 14.0867982 0.41720704 14.14032207 -3.375 14.1875 C-4.45523438 14.21263672 -5.53546875 14.23777344 -6.6484375 14.26367188 C-8.1953125 14.27817383 -8.1953125 14.27817383 -9.7734375 14.29296875 C-10.72653809 14.3086792 -11.67963867 14.32438965 -12.66162109 14.34057617 C-13.43328613 14.22818604 -14.20495117 14.1157959 -15 14 C-17 11 -17 11 -17 7 C-12.25 7.875 -12.25 7.875 -10 9 C-9.67 6.69 -9.34 4.38 -9 2 C-6 3 -6 3 -4.8125 5.0625 C-4.544375 5.701875 -4.27625 6.34125 -4 7 C-2.10786631 4.61426621 -0.97608217 2.92824652 0 0 Z " fill="#BA9760" transform="translate(92,38)"/>
<path d="M0 0 C2.97 0 5.94 0 9 0 C8 4 8 4 7 7 C8.65 7 10.3 7 12 7 C12 6.01 12 5.02 12 4 C11.34 4 10.68 4 10 4 C10 2.68 10 1.36 10 0 C12.64 0 15.28 0 18 0 C18 1.32 18 2.64 18 4 C17.34 4 16.68 4 16 4 C16 6.97 16 9.94 16 13 C16.66 13 17.32 13 18 13 C18 13.99 18 14.98 18 16 C15.36 16 12.72 16 10 16 C10 15.01 10 14.02 10 13 C10.66 13 11.32 13 12 13 C12 12.01 12 11.02 12 10 C10.35 10 8.7 10 7 10 C7 10.99 7 11.98 7 13 C7.66 13 8.32 13 9 13 C9 13.99 9 14.98 9 16 C6.03 16 3.06 16 0 16 C0 15.01 0 14.02 0 13 C0.66 13 1.32 13 2 13 C2 10.03 2 7.06 2 4 C1.34 4 0.68 4 0 4 C0 2.68 0 1.36 0 0 Z " fill="#FEFEFE" transform="translate(47,58)"/>
<path d="M0 0 C2.43119623 1.87015094 3.64069173 3.28138345 5 6 C5.37712577 10.99691647 5.09290612 13.99067725 2 18 C-1.51253146 20.34168764 -2.86469356 20.49623677 -7 20 C-9.69990662 18.20006226 -11.5418865 16.916227 -13 14 C-13.3506291 8.65290626 -13.44403637 5.37127693 -10 1 C-6.80766515 -0.59616743 -3.46538503 -0.51466114 0 0 Z M-6.625 4 C-8.87806556 7.27718627 -8.31086878 10.08305338 -8 14 C-7.34 14.66 -6.68 15.32 -6 16 C-2.69316534 15.71016731 -2.69316534 15.71016731 0 14 C0.55009684 8.68555124 0.55009684 8.68555124 -1.375 4 C-3.56210256 2.65409073 -4.43789744 2.65409073 -6.625 4 Z " fill="#FEFEFE" transform="translate(141,56)"/>
<path d="M0 0 C1.7492214 -0.08142927 3.49954542 -0.13938541 5.25 -0.1875 C6.22453125 -0.22230469 7.1990625 -0.25710937 8.203125 -0.29296875 C11.4074198 0.04267665 12.72415111 0.75628074 15 3 C15.45627547 6.46769356 14.77470902 9.61064804 14 13 C14.66 13 15.32 13 16 13 C16 13.99 16 14.98 16 16 C10.72 16 5.44 16 0 16 C0 15.01 0 14.02 0 13 C0.66 13 1.32 13 2 13 C2 10.03 2 7.06 2 4 C1.34 4 0.68 4 0 4 C0 2.68 0 1.36 0 0 Z M7 4 C7 4.99 7 5.98 7 7 C7.99 7 8.98 7 10 7 C10 6.01 10 5.02 10 4 C9.01 4 8.02 4 7 4 Z M7 11 C7 11.66 7 12.32 7 13 C7.66 13 8.32 13 9 13 C9 12.34 9 11.68 9 11 C8.34 11 7.68 11 7 11 Z " fill="#FEFEFE" transform="translate(76,58)"/>
<path d="M0 0 C1.19109375 -0.00386719 1.19109375 -0.00386719 2.40625 -0.0078125 C4.5 0.125 4.5 0.125 6.5 1.125 C6.5 3.105 6.5 5.085 6.5 7.125 C5.18 7.125 3.86 7.125 2.5 7.125 C2.17 6.135 1.84 5.145 1.5 4.125 C-1.25641416 4.62256092 -1.25641416 4.62256092 -3.5 6.125 C-3.57148199 7.47743917 -3.58399454 8.83334367 -3.5625 10.1875 C-3.541875 11.486875 -3.52125 12.78625 -3.5 14.125 C-1.52 14.785 0.46 15.445 2.5 16.125 C2.5 15.135 2.5 14.145 2.5 13.125 C3.82 13.125 5.14 13.125 6.5 13.125 C6.5 15.105 6.5 17.085 6.5 19.125 C2.89427296 20.32690901 0.2897565 20.45170315 -3.5 20.125 C-6.25329021 18.32937595 -8.02627461 17.07245078 -9.5 14.125 C-9.8506291 8.77790626 -9.94403637 5.49627693 -6.5 1.125 C-4.13386544 -0.05806728 -2.63219264 -0.00854608 0 0 Z " fill="#FEFEFE" transform="translate(39.5,55.875)"/>
<path d="M0 0 C2.98106539 2.59887752 3.89388856 4.13342323 4.375 8.0625 C4.01355323 10.89383307 3.57370678 12.63943983 2 15 C-1.11549872 16.55774936 -4.6044388 16.56480622 -8 16 C-10.18513875 14.43283035 -10.89262439 13.52526988 -11.43359375 10.87890625 C-11.43994339 7.11357153 -11.4311636 4.70710831 -9.4375 1.4375 C-6.01693383 -0.57975697 -3.90126052 -0.6269883 0 0 Z M-6 4 C-6.76716851 6.85078091 -6.76716851 6.85078091 -7 10 C-5.68681738 11.89958081 -5.68681738 11.89958081 -4 13 C-3.01 12.34 -2.02 11.68 -1 11 C-0.7497843 7.91634129 -0.7497843 7.91634129 -1 5 C-2.65 4.67 -4.3 4.34 -6 4 Z " fill="#FEFEFE" transform="translate(103,58)"/>
<path d="M0 0 C2.97 0 5.94 0 9 0 C9 1.32 9 2.64 9 4 C8.34 4 7.68 4 7 4 C7 6.97 7 9.94 7 13 C7.66 13 8.32 13 9 13 C9 13.99 9 14.98 9 16 C6.03 16 3.06 16 0 16 C0 15.01 0 14.02 0 13 C0.66 13 1.32 13 2 13 C1.85769192 11.58297487 1.71099254 10.1663904 1.5625 8.75 C1.48128906 7.96109375 1.40007812 7.1721875 1.31640625 6.359375 C1.00488803 3.70381637 1.00488803 3.70381637 0 0 Z " fill="#FEFEFE" transform="translate(66,58)"/>
<path d="M0 0 C0.33 0 0.66 0 1 0 C1.33 2.64 1.66 5.28 2 8 C7.28 8.33 12.56 8.66 18 9 C18 9.33 18 9.66 18 10 C14.20847666 10.0867982 10.41720704 10.14032207 6.625 10.1875 C5.54476562 10.21263672 4.46453125 10.23777344 3.3515625 10.26367188 C1.8046875 10.27817383 1.8046875 10.27817383 0.2265625 10.29296875 C-0.72653809 10.3086792 -1.67963867 10.32438965 -2.66162109 10.34057617 C-3.43328613 10.22818604 -4.20495117 10.1157959 -5 10 C-7 7 -7 7 -7 3 C-2.25 3.875 -2.25 3.875 0 5 C0 3.35 0 1.7 0 0 Z " fill="#D1BA95" transform="translate(82,42)"/>
<path d="M0 0 C1.98 0 3.96 0 6 0 C6 2.31 6 4.62 6 7 C4.02 7 2.04 7 0 7 C0 4.69 0 2.38 0 0 Z " fill="#FEFEFE" transform="translate(44,82)"/>
<path d="M0 0 C1.32 0 2.64 0 4 0 C4.33 1.98 4.66 3.96 5 6 C3.125 6.625 3.125 6.625 1 7 C0.34 6.34 -0.32 5.68 -1 5 C-0.625 2.375 -0.625 2.375 0 0 Z " fill="#FEFEFE" transform="translate(100,82)"/>
<path d="M0 0 C2.475 0.495 2.475 0.495 5 1 C5.33 2.98 5.66 4.96 6 7 C4.02 7 2.04 7 0 7 C0 4.69 0 2.38 0 0 Z " fill="#FEFEFE" transform="translate(106,82)"/>
<path d="M0 0 C1.65 0 3.3 0 5 0 C5.33 1.32 5.66 2.64 6 4 C5.01 4.33 4.02 4.66 3 5 C3 5.66 3 6.32 3 7 C2.01 7 1.02 7 0 7 C0 4.69 0 2.38 0 0 Z " fill="#FEFEFE" transform="translate(127,82)"/>
<path d="M0 0 C1.98 0 3.96 0 6 0 C5.34 2.31 4.68 4.62 4 7 C2.68 6.67 1.36 6.34 0 6 C0 4.02 0 2.04 0 0 Z M2 2 C2.33 2.99 2.66 3.98 3 5 C3.33 4.01 3.66 3.02 4 2 C3.34 2 2.68 2 2 2 Z " fill="#FEFEFE" transform="translate(120,82)"/>
<path d="M0 0 C2.0625 0.4375 2.0625 0.4375 4 1 C4.625 2.875 4.625 2.875 5 5 C4.34 5.66 3.68 6.32 3 7 C0.875 6.625 0.875 6.625 -1 6 C-1.042721 4.33388095 -1.04063832 2.66617115 -1 1 C-0.67 0.67 -0.34 0.34 0 0 Z M1 2 C1.33 2.99 1.66 3.98 2 5 C2 4.01 2 3.02 2 2 C1.67 2 1.34 2 1 2 Z " fill="#FEFEFE" transform="translate(114,82)"/>
<path d="M0 0 C0.66 0 1.32 0 2 0 C3.4606285 2.64738916 4 3.89448334 4 7 C2.02 7 0.04 7 -2 7 C-1.34 4.69 -0.68 2.38 0 0 Z " fill="#FEFEFE" transform="translate(84,82)"/>
<path d="M0 0 C0.99 0 1.98 0 3 0 C3.33 1.98 3.66 3.96 4 6 C2.35 6.33 0.7 6.66 -1 7 C-1.04254356 5.00045254 -1.04080783 2.99958364 -1 1 C-0.67 0.67 -0.34 0.34 0 0 Z " fill="#FEFEFE" transform="translate(60,82)"/>
<path d="M0 0 C2.475 0.495 2.475 0.495 5 1 C4.49396008 3.16874252 4.00016187 4.99967627 3 7 C2.01 7 1.02 7 0 7 C0 4.69 0 2.38 0 0 Z " fill="#FEFEFE" transform="translate(65,82)"/>
<path d="M0 0 C2.0625 0.4375 2.0625 0.4375 4 1 C4 2.65 4 4.3 4 6 C2.0625 6.5625 2.0625 6.5625 0 7 C-1 6 -1 6 -1.125 3.5 C-1 1 -1 1 0 0 Z M1 2 C2 5 2 5 2 5 Z " fill="#FEFEFE" transform="translate(53,82)"/>
<path d="M0 0 C1.65 0.33 3.3 0.66 5 1 C4.67 2.65 4.34 4.3 4 6 C2.35 6 0.7 6 -1 6 C-0.67 4.02 -0.34 2.04 0 0 Z M2 2 C3 4 3 4 3 4 Z " fill="#FEFEFE" transform="translate(101,92)"/>
<path d="M0 0 C1.98 0.495 1.98 0.495 4 1 C4.33 2.65 4.66 4.3 5 6 C3.02 6 1.04 6 -1 6 C-0.67 4.02 -0.34 2.04 0 0 Z " fill="#FEFEFE" transform="translate(41,92)"/>
<path d="M0 0 C1.65 0 3.3 0 5 0 C4.67 2.31 4.34 4.62 4 7 C3.01 7 2.02 7 1 7 C1.33 5.68 1.66 4.36 2 3 C1.34 3 0.68 3 0 3 C0 2.01 0 1.02 0 0 Z " fill="#FEFEFE" transform="translate(76,82)"/>
<path d="M0 0 C0.99 0 1.98 0 3 0 C4.4606285 2.64738916 5 3.89448334 5 7 C3.35 7 1.7 7 0 7 C0 4.69 0 2.38 0 0 Z " fill="#FEFEFE" transform="translate(89,82)"/>
<path d="M0 0 C1.32 0 2.64 0 4 0 C4 1.65 4 3.3 4 5 C2.35 5.33 0.7 5.66 -1 6 C-0.67 4.02 -0.34 2.04 0 0 Z " fill="#FEFEFE" transform="translate(112,94)"/>
<path d="M0 0 C1.32 0 2.64 0 4 0 C4 2.31 4 4.62 4 7 C2.68 7 1.36 7 0 7 C0 4.69 0 2.38 0 0 Z " fill="#FEFEFE" transform="translate(71,82)"/>
<path d="M0 0 C1.32 0 2.64 0 4 0 C3.67 1.65 3.34 3.3 3 5 C1.68 5.33 0.36 5.66 -1 6 C-1 5.34 -1 4.68 -1 4 C-0.34 4 0.32 4 1 4 C0.67 2.68 0.34 1.36 0 0 Z " fill="#FEFEFE" transform="translate(77,94)"/>
<path d="M0 0 C0.33 0 0.66 0 1 0 C1 1.65 1 3.3 1 5 C3.97 5 6.94 5 10 5 C9.67 5.66 9.34 6.32 9 7 C6.36 6.67 3.72 6.34 1 6 C0.67 6.66 0.34 7.32 0 8 C0 7.34 0 6.68 0 6 C-0.66 5.67 -1.32 5.34 -2 5 C-1.34 5 -0.68 5 0 5 C0 3.35 0 1.7 0 0 Z " fill="#E6D9C5" transform="translate(101,40)"/>
<path d="M0 0 C1.32 0 2.64 0 4 0 C3.25 2.4375 3.25 2.4375 2 5 C-0.125 5.8125 -0.125 5.8125 -2 6 C-1.34 5.01 -0.68 4.02 0 3 C0 2.01 0 1.02 0 0 Z " fill="#FEFEFE" transform="translate(132,94)"/>
<path d="M0 0 C0.66 0 1.32 0 2 0 C1.67 1.65 1.34 3.3 1 5 C-0.65 5 -2.3 5 -4 5 C-2.71937515 3.2925002 -1.38232443 1.62626404 0 0 Z " fill="#B38D50" transform="translate(99,46)"/>
<path d="M0 0 C1.65 0 3.3 0 5 0 C5 1.32 5 2.64 5 4 C3.68 4 2.36 4 1 4 C0.67 2.68 0.34 1.36 0 0 Z " fill="#FEFEFE" transform="translate(117,94)"/>
<path d="M0 0 C5.94 0 11.88 0 18 0 C18 0.33 18 0.66 18 1 C12.06 1 6.12 1 0 1 C0 0.67 0 0.34 0 0 Z " fill="#FEFEFE" transform="translate(21,85)"/>
<path d="M0 0 C5.61 0 11.22 0 17 0 C17 0.33 17 0.66 17 1 C11.39 1 5.78 1 0 1 C0 0.67 0 0.34 0 0 Z " fill="#FEFEFE" transform="translate(138,85)"/>
<path d="M0 0 C1.32 0 2.64 0 4 0 C4 1.32 4 2.64 4 4 C2.68 4 1.36 4 0 4 C0 2.68 0 1.36 0 0 Z " fill="#FEFEFE" transform="translate(91,94)"/>
<path d="M0 0 C0.99 0 1.98 0 3 0 C2.67 1.98 2.34 3.96 2 6 C1.01 5.67 0.02 5.34 -1 5 C-0.67 3.35 -0.34 1.7 0 0 Z " fill="#FEFEFE" transform="translate(87,92)"/>
<path d="M0 0 C1.32 0 2.64 0 4 0 C3.67 1.32 3.34 2.64 3 4 C2.01 4 1.02 4 0 4 C0 2.68 0 1.36 0 0 Z " fill="#FEFEFE" transform="translate(57,94)"/>
<path d="M0 0 C1.32 0 2.64 0 4 0 C3.67 1.32 3.34 2.64 3 4 C2.01 4 1.02 4 0 4 C0 2.68 0 1.36 0 0 Z " fill="#FEFEFE" transform="translate(47,94)"/>
<path d="M0 0 C0.66 0 1.32 0 2 0 C2 1.98 2 3.96 2 6 C1.34 6 0.68 6 0 6 C-1.125 2.25 -1.125 2.25 0 0 Z " fill="#FEFEFE" transform="translate(124,92)"/>
<path d="M0 0 C0.99 0 1.98 0 3 0 C3 1.32 3 2.64 3 4 C2.01 4 1.02 4 0 4 C0 2.68 0 1.36 0 0 Z " fill="#FEFEFE" transform="translate(68,94)"/>
<path d="M0 0 C1.32 0 2.64 0 4 0 C3.67 1.32 3.34 2.64 3 4 C2.34 4 1.68 4 1 4 C0.67 2.68 0.34 1.36 0 0 Z " fill="#FEFEFE" transform="translate(62,94)"/>
<path d="M0 0 C0.99 0.33 1.98 0.66 3 1 C2.67 1.99 2.34 2.98 2 4 C1.01 4 0.02 4 -1 4 C-0.67 2.68 -0.34 1.36 0 0 Z " fill="#FEFEFE" transform="translate(53,94)"/>
<path d="M0 0 C0.66 0.33 1.32 0.66 2 1 C1.67 2.65 1.34 4.3 1 6 C0.34 6 -0.32 6 -1 6 C-0.67 4.02 -0.34 2.04 0 0 Z " fill="#FEFEFE" transform="translate(109,92)"/>
<path d="M0 0 C0.99 0.33 1.98 0.66 3 1 C2.67 2.32 2.34 3.64 2 5 C1.34 5 0.68 5 0 5 C0 3.35 0 1.7 0 0 Z " fill="#FEFEFE" transform="translate(128,93)"/>
<path d="M0 0 C0.99 0.33 1.98 0.66 3 1 C2.01 1.99 1.02 2.98 0 4 C0 2.68 0 1.36 0 0 Z " fill="#FEFEFE" transform="translate(73,94)"/>
</svg>
